<svg xmlns="http://www.w3.org/2000/svg" aria-hidden="true" viewBox="0 0 115 25" width="140px"><path fill="#000" d="M16.987 13.295a5.681 5.681 0 012.706-4.766 5.815 5.815 0 00-4.582-2.477c-1.928-.203-3.797 1.153-4.78 1.153-1 0-2.513-1.133-4.142-1.1a6.102 6.102 0 00-5.135 3.132c-2.22 3.844-.564 9.493 1.563 12.6 1.064 1.522 2.308 3.222 3.935 3.161 1.592-.066 2.187-1.015 4.109-1.015 1.904 0 2.462 1.015 4.123.977 1.708-.028 2.785-1.528 3.811-3.064a12.582 12.582 0 001.744-3.55 5.49 5.49 0 01-3.352-5.05zm-3.135-9.288A5.593 5.593 0 0015.132 0a5.691 5.691 0 00-3.683 1.905 5.323 5.323 0 00-1.313 3.86 4.705 4.705 0 003.716-1.758zm23.264 12.278h-5.434l-1.305 3.853h-2.301l5.147-14.256h2.39l5.148 14.256H38.42l-1.304-3.853zm-4.871-1.778h4.307L34.43 8.253h-.06l-2.124 6.254zm19.631.435c0 3.23-1.729 5.305-4.337 5.305a3.523 3.523 0 01-3.27-1.819h-.05v5.148h-2.134V9.744h2.066v1.73h.039a3.687 3.687 0 013.31-1.838c2.637 0 4.376 2.085 4.376 5.306zm-2.193 0c0-2.104-1.087-3.488-2.747-3.488-1.63 0-2.726 1.413-2.726 3.488 0 2.094 1.096 3.497 2.726 3.497 1.66 0 2.747-1.374 2.747-3.497zm13.633 0c0 3.23-1.729 5.305-4.338 5.305a3.523 3.523 0 01-3.27-1.819h-.05v5.148h-2.133V9.744h2.065v1.73h.04a3.687 3.687 0 013.31-1.838c2.637 0 4.376 2.085 4.376 5.306zm-2.193 0c0-2.104-1.087-3.488-2.747-3.488-1.63 0-2.726 1.413-2.726 3.488 0 2.094 1.096 3.497 2.726 3.497 1.66 0 2.747-1.374 2.747-3.497zm9.755 1.224c.158 1.413 1.531 2.341 3.408 2.341 1.798 0 3.092-.928 3.092-2.203 0-1.106-.78-1.769-2.628-2.223l-1.847-.445c-2.618-.632-3.834-1.856-3.834-3.843 0-2.46 2.144-4.149 5.188-4.149 3.012 0 5.077 1.69 5.147 4.15H77.25c-.129-1.423-1.305-2.282-3.024-2.282-1.718 0-2.894.869-2.894 2.133 0 1.008.75 1.601 2.588 2.055l1.571.386c2.925.691 4.14 1.866 4.14 3.952 0 2.667-2.124 4.337-5.503 4.337-3.162 0-5.296-1.631-5.434-4.21h2.184zm13.356-8.882v2.46h1.976v1.69h-1.976v5.73c0 .89.396 1.304 1.264 1.304.235-.004.47-.02.702-.05v1.68c-.39.073-.787.106-1.185.099-2.104 0-2.925-.79-2.925-2.806v-5.958h-1.51v-1.69h1.51V7.285h2.144zm3.122 7.656c0-3.27 1.926-5.325 4.93-5.325 3.013 0 4.93 2.055 4.93 5.325 0 3.28-1.907 5.326-4.93 5.326-3.023 0-4.93-2.046-4.93-5.326zm7.686 0c0-2.243-1.028-3.567-2.757-3.567-1.728 0-2.755 1.334-2.755 3.567 0 2.253 1.027 3.567 2.755 3.567 1.73 0 2.757-1.314 2.757-3.567zm3.933-5.196h2.034v1.77h.05a2.479 2.479 0 012.5-1.878c.246-.001.491.025.731.08v1.995a2.986 2.986 0 00-.959-.13 2.149 2.149 0 00-2.223 2.392v6.165h-2.133V9.744zm15.151 7.34c-.287 1.887-2.124 3.182-4.475 3.182-3.024 0-4.901-2.026-4.901-5.276 0-3.26 1.887-5.375 4.811-5.375 2.876 0 4.684 1.976 4.684 5.127v.73h-7.341v.13a2.709 2.709 0 002.796 2.944 2.35 2.35 0 002.4-1.462h2.026zm-7.212-3.102h5.196a2.498 2.498 0 00-2.549-2.638 2.63 2.63 0 00-2.647 2.638z"/></svg>