<svg width="32" height="17" viewBox="0 0 32 17" fill="none" xmlns="http://www.w3.org/2000/svg">
<g clip-path="url(#clip0_2868_2225)">
<path fill-rule="evenodd" clip-rule="evenodd" d="M13.2561 12.104V6.96099H10.9711V8.10399H12.1141V12.104H10.3991V13.246H14.9711V12.105H13.2551L13.2561 12.104ZM12.6851 3.53199C12.5725 3.53199 12.4611 3.55415 12.3571 3.59722C12.2531 3.64029 12.1586 3.70342 12.0791 3.783C11.9995 3.86258 11.9364 3.95705 11.8933 4.06103C11.8502 4.165 11.8281 4.27644 11.8281 4.38899C11.8281 4.50153 11.8502 4.61297 11.8933 4.71695C11.9364 4.82092 11.9995 4.9154 12.0791 4.99498C12.1586 5.07456 12.2531 5.13768 12.3571 5.18075C12.4611 5.22382 12.5725 5.24599 12.6851 5.24599C12.9123 5.24599 13.1303 5.1557 13.291 4.99498C13.4518 4.83426 13.5421 4.61628 13.5421 4.38899C13.5421 4.1617 13.4518 3.94372 13.291 3.783C13.1303 3.62228 12.9123 3.53199 12.6851 3.53199ZM12.6851 16.675C10.5633 16.675 8.5285 15.8321 7.0282 14.3318C5.52791 12.8316 4.68506 10.7967 4.68506 8.67499C4.68506 6.55326 5.52791 4.51842 7.0282 3.01813C8.5285 1.51784 10.5633 0.674988 12.6851 0.674988C14.8068 0.674988 16.8416 1.51784 18.3419 3.01813C19.8422 4.51842 20.6851 6.55326 20.6851 8.67499C20.6851 10.7967 19.8422 12.8316 18.3419 14.3318C16.8416 15.8321 14.8068 16.675 12.6851 16.675ZM12.6851 1.81799C10.8665 1.81799 9.12236 2.54042 7.83643 3.82636C6.55049 5.11229 5.82806 6.8564 5.82806 8.67499C5.82806 10.4936 6.55049 12.2377 7.83643 13.5236C9.12236 14.8096 10.8665 15.532 12.6851 15.532C14.5036 15.532 16.2478 14.8096 17.5337 13.5236C18.8196 12.2377 19.5421 10.4936 19.5421 8.67499C19.5421 6.8564 18.8196 5.11229 17.5337 3.82636C16.2478 2.54042 14.5036 1.81799 12.6851 1.81799Z" fill="#5C667B"/>
</g>
<defs>
<clipPath id="clip0_2868_2225">
<rect width="16" height="16" fill="white" transform="translate(4.68506 0.674988)"/>
</clipPath>
</defs>
</svg>
