<svg xmlns="http://www.w3.org/2000/svg" viewBox="0 0 88.5 14.9" aria-hidden="true" width="100px"><defs><linearGradient id="stars-0.9" x1="0" x2="100%" y1="0" y2="0"><stop offset="0" stop-color="#F19937"/><stop offset="1" stop-color="#F19937"/><stop offset="1" stop-color="#FFFFFF"/></linearGradient></defs><path fill="url(#stars-0.9)" d="M10 4.8L7.7 0 5.3 4.8 0 5.6l3.8 3.8-.9 5.5 4.8-2.6 4.8 2.6-1-5.5 3.8-3.8zM28.3 4.8L26 0l-2.4 4.8-5.3.8 3.8 3.8-1 5.5 4.9-2.6 4.8 2.6-1-5.5 3.8-3.8zM46.6 4.8L44.2 0l-2.3 4.8-5.3.8 3.8 3.8-1 5.5 4.8-2.6 4.9 2.6-1-5.5 3.8-3.8zM64.9 4.8L62.5 0l-2.3 4.8-5.3.8 3.8 3.8-1 5.5 4.8-2.6 4.8 2.6-.9-5.5 3.8-3.8zM88.5 5.6l-5.3-.8L80.8 0l-2.4 4.8-5.2.8L77 9.4l-1 5.5 4.8-2.6 4.8 2.6-.9-5.5z"/></svg>