<svg xmlns="http://www.w3.org/2000/svg" viewBox="0 0 111 20" aria-hidden="true" style="height: 30px;"><defs><linearGradient id="trustpilotStars-1" x1="0" x2="100%" y1="0" y2="0"><stop offset="0" stop-color="#5E3D98"/><stop offset="1" stop-color="#5E3D98"/><stop offset="1" stop-color="#DCDCE6"/></linearGradient></defs><path fill="#fff" d="M1.737 0h17.794v19.412H1.737zM69.678 0h17.794v19.412H69.678zM92.325 0h17.794v19.412H92.325zM47.031 0h17.794v19.412H47.031zM24.384 0h17.794v19.412H24.384z"/><path fill="url(#trustpilotStars-1)" fill-rule="evenodd" d="M19.912 0v19.412H.5V0h19.412zm-6.96 12.739l-2.14.597 3.034 2.436-.894-3.033zm-2.746-9.1L8.78 8.272H4.14l3.755 2.87-1.426 4.631 3.755-2.87 2.31-1.76 3.738-2.871h-4.64L10.206 3.64zM65.207 0v19.412H45.795V0h19.412zm-6.96 12.739l-2.14.597 3.034 2.436-.894-3.033zm-2.746-9.1l-1.426 4.632h-4.64l3.755 2.87-1.426 4.631 3.755-2.87 2.31-1.76 3.738-2.871h-4.64L55.501 3.64zM42.559 0v19.412H23.147V0h19.412zm-6.96 12.739l-2.14.597 3.034 2.436-.894-3.033zm-2.746-9.1l-1.426 4.632h-4.64l3.755 2.87-1.426 4.631 3.755-2.87 2.31-1.76L38.92 8.27h-4.64L32.853 3.64zM87.853 0v19.412H68.441V0h19.412zm-6.96 12.739l-2.14.597 3.034 2.436-.894-3.033zm-2.746-9.1l-1.426 4.632h-4.64l3.755 2.87-1.426 4.631 3.755-2.87 2.311-1.76 3.737-2.871h-4.64L78.148 3.64zM110.5 0v19.412H91.088V0H110.5zm-6.96 12.739l-2.14.597 3.034 2.436-.894-3.033zm-2.746-9.1l-1.426 4.632h-4.64l3.755 2.87-1.426 4.631 3.755-2.87 2.311-1.76 3.737-2.871h-4.64l-1.426-4.631z" clip-rule="evenodd"/></svg>