<svg xmlns="http://www.w3.org/2000/svg" aria-hidden="true" viewBox="0 0 125 30" style="width: 125px; height: 30px;"><path fill="#ffffff" fill-rule="evenodd" d="M33.493 9.512h12.565v2.441h-4.94v13.724H38.4V11.953h-4.919v-2.44h.011zm12.029 4.46h2.322v2.26h.044c.077-.32.219-.628.427-.925.208-.296.46-.582.756-.821a4.02 4.02 0 01.986-.605 2.912 2.912 0 011.106-.228c.285 0 .493.011.603.023.11.011.22.034.34.046v2.486a7.682 7.682 0 00-.537-.08 4.376 4.376 0 00-.537-.034 2.722 2.722 0 00-2.147 1.027 3.93 3.93 0 00-.657 1.255c-.165.502-.242 1.072-.242 1.722v5.567h-2.475V13.973h.01zm17.966 11.705h-2.432v-1.632h-.044a3.45 3.45 0 01-1.358 1.415c-.603.354-1.217.536-1.84.536-1.48 0-2.553-.377-3.21-1.14-.658-.765-.987-1.917-.987-3.457v-7.427h2.476v7.176c0 1.026.186 1.757.57 2.179.372.422.91.638 1.588.638.526 0 .953-.08 1.304-.25.35-.172.635-.388.843-.674.22-.273.373-.616.471-1.003.1-.388.143-.81.143-1.267v-6.787h2.476v11.693zm4.217-3.753c.077.752.351 1.277.822 1.585.482.297 1.052.456 1.72.456.23 0 .493-.022.789-.057.296-.034.58-.114.832-.216.263-.103.471-.263.647-.468.164-.205.24-.468.23-.799a1.122 1.122 0 00-.35-.81c-.22-.216-.494-.376-.833-.513a8.087 8.087 0 00-1.162-.33c-.438-.092-.876-.195-1.325-.297-.46-.103-.91-.24-1.337-.388a4.024 4.024 0 01-1.15-.616 2.68 2.68 0 01-.81-.981c-.209-.4-.307-.89-.307-1.483 0-.639.153-1.164.449-1.597a3.446 3.446 0 011.128-1.038c.46-.263.964-.445 1.523-.56a8.92 8.92 0 011.6-.159c.58 0 1.139.069 1.664.194.526.126 1.008.33 1.436.628.427.285.777.661 1.062 1.117.285.457.46 1.016.537 1.666h-2.585c-.12-.616-.384-1.038-.811-1.243-.427-.217-.92-.32-1.468-.32-.175 0-.383.011-.624.046-.242.034-.46.09-.68.17-.208.08-.383.206-.536.366a.903.903 0 00-.22.627c0 .32.11.57.318.765.208.194.482.353.822.49.34.126.723.24 1.161.33.438.092.887.195 1.347.297.45.103.888.24 1.326.388.438.149.822.354 1.161.616.34.263.614.582.822.97.208.388.318.878.318 1.449 0 .696-.154 1.277-.46 1.768a3.71 3.71 0 01-1.184 1.175 5.435 5.435 0 01-1.621.662 7.827 7.827 0 01-1.764.205c-.712 0-1.37-.08-1.972-.251a4.716 4.716 0 01-1.566-.753 3.698 3.698 0 01-1.041-1.266c-.252-.502-.383-1.107-.405-1.803h2.497v-.023zm8.173-7.951h1.873v-3.514h2.476v3.514h2.235V15.9h-2.235v6.252c0 .273.01.502.033.707.022.194.076.365.153.502a.71.71 0 00.362.308c.164.068.372.102.657.102.175 0 .35 0 .526-.01.175-.012.35-.035.526-.08v1.996c-.274.034-.548.057-.8.09a6.14 6.14 0 01-.8.047c-.657 0-1.183-.069-1.577-.195-.395-.125-.712-.319-.931-.57-.23-.25-.373-.559-.46-.935a7.306 7.306 0 01-.143-1.29v-6.9H75.9v-1.951h-.022zm8.337 0h2.344v1.585h.044c.35-.684.832-1.163 1.457-1.46a4.64 4.64 0 012.026-.445c.888 0 1.655.16 2.312.49a4.55 4.55 0 011.643 1.335c.438.57.756 1.232.975 1.985.22.753.329 1.563.329 2.419 0 .787-.099 1.551-.296 2.281a6.219 6.219 0 01-.887 1.962 4.414 4.414 0 01-1.512 1.358c-.614.342-1.326.513-2.158.513-.362 0-.723-.034-1.085-.103a4.634 4.634 0 01-1.04-.33 3.733 3.733 0 01-1.633-1.404h-.044V30h-2.475V13.973zm8.654 5.863a6.05 6.05 0 00-.197-1.54 4.23 4.23 0 00-.592-1.323 3.062 3.062 0 00-.975-.924 2.648 2.648 0 00-1.347-.354c-1.04 0-1.83.377-2.355 1.13-.526.752-.79 1.756-.79 3.011 0 .593.067 1.14.209 1.643.142.502.34.935.624 1.3.274.365.603.65.986.856.384.216.833.32 1.337.32.57 0 1.04-.126 1.435-.366.394-.24.712-.559.964-.935.252-.388.438-.822.548-1.312a7.67 7.67 0 00.153-1.506zM97.24 9.512h2.476v2.441H97.24v-2.44zm0 4.46h2.476v11.705H97.24V13.973zm4.689-4.46h2.476v16.165h-2.476V9.512zm10.067 16.484c-.898 0-1.698-.16-2.399-.468a5.296 5.296 0 01-1.785-1.277 5.618 5.618 0 01-1.107-1.951 7.812 7.812 0 01-.383-2.487c0-.89.131-1.711.383-2.464a5.617 5.617 0 011.107-1.95 5.043 5.043 0 011.785-1.278c.701-.308 1.501-.468 2.399-.468.899 0 1.698.16 2.4.468a5.295 5.295 0 011.785 1.277 5.617 5.617 0 011.107 1.951 7.72 7.72 0 01.383 2.464c0 .901-.131 1.734-.383 2.487a5.618 5.618 0 01-1.107 1.95 5.044 5.044 0 01-1.785 1.278c-.702.308-1.501.468-2.4.468zm0-2.042c.548 0 1.03-.125 1.435-.365.406-.24.734-.559.997-.947.263-.388.45-.832.581-1.323.121-.49.186-.992.186-1.506 0-.502-.065-.992-.186-1.494a3.989 3.989 0 00-.581-1.323 3.062 3.062 0 00-.997-.936c-.405-.24-.887-.365-1.435-.365-.547 0-1.029.125-1.435.365a3.2 3.2 0 00-.997.936 4.203 4.203 0 00-.58 1.323 6.317 6.317 0 00-.186 1.494c0 .514.065 1.015.186 1.506.12.49.317.935.58 1.323.263.388.592.707.997.947.406.251.888.365 1.435.365zm6.398-9.982h1.873V10.46h2.476v3.514h2.235V15.9h-2.235v6.252c0 .273.011.502.033.707.022.194.077.365.153.502.077.137.198.24.362.308.164.068.372.102.657.102.176 0 .351 0 .526-.01.175-.012.351-.035.526-.08v1.996c-.274.034-.548.057-.8.09a6.138 6.138 0 01-.799.047c-.658 0-1.184-.069-1.578-.195-.394-.125-.712-.319-.931-.57-.23-.25-.373-.559-.46-.935a7.284 7.284 0 01-.143-1.29v-6.9h-1.873v-1.951h-.022z" clip-rule="evenodd"/><path fill="#F89623" fill-rule="evenodd" d="M14.514 0l3.423 10.906h11.08l-8.962 6.736 3.422 10.895-8.963-6.736-8.974 6.736 3.434-10.895L0 10.895l11.08.01L14.515 0zm5.54 17.642l-5.54 4.159 6.31-1.693-.77-2.466z" clip-rule="evenodd"/></svg>